<mxfile host="app.diagrams.net" agent="Mozilla/5.0 (Windows NT 10.0; Win64; x64) AppleWebKit/537.36 (KHTML, like Gecko) Chrome/130.0.0.0 Safari/537.36" version="24.8.0">
  <diagram name="PÃ¡gina-1" id="EXcE3XUqLLUJshs4Q3l9">
    <mxGraphModel dx="1592" dy="400" grid="1" gridSize="10" guides="1" tooltips="1" connect="1" arrows="1" fold="1" page="1" pageScale="1" pageWidth="827" pageHeight="1169" math="0" shadow="0">
      <root>
        <mxCell id="0" />
        <mxCell id="1" parent="0" />
        <mxCell id="IGj6ZcriKxsuKfyfzd8B-1" value="Usuario" style="rounded=1;whiteSpace=wrap;html=1;arcSize=0;" parent="1" vertex="1">
          <mxGeometry x="300" y="230" width="190" height="80" as="geometry" />
        </mxCell>
        <mxCell id="IGj6ZcriKxsuKfyfzd8B-2" value="login" style="ellipse;whiteSpace=wrap;html=1;aspect=fixed;" parent="1" vertex="1">
          <mxGeometry x="330" y="160" width="30" height="30" as="geometry" />
        </mxCell>
        <mxCell id="IGj6ZcriKxsuKfyfzd8B-3" value="senha" style="ellipse;whiteSpace=wrap;html=1;aspect=fixed;" parent="1" vertex="1">
          <mxGeometry x="380" y="160" width="30" height="30" as="geometry" />
        </mxCell>
        <mxCell id="IGj6ZcriKxsuKfyfzd8B-4" value="id" style="ellipse;whiteSpace=wrap;html=1;aspect=fixed;" parent="1" vertex="1">
          <mxGeometry x="280" y="160" width="30" height="30" as="geometry" />
        </mxCell>
        <mxCell id="IGj6ZcriKxsuKfyfzd8B-5" value="email" style="ellipse;whiteSpace=wrap;html=1;aspect=fixed;" parent="1" vertex="1">
          <mxGeometry x="425" y="160" width="30" height="30" as="geometry" />
        </mxCell>
        <mxCell id="IGj6ZcriKxsuKfyfzd8B-6" value="data_ingresso" style="ellipse;whiteSpace=wrap;html=1;aspect=fixed;" parent="1" vertex="1">
          <mxGeometry x="480" y="160" width="30" height="30" as="geometry" />
        </mxCell>
        <mxCell id="IGj6ZcriKxsuKfyfzd8B-8" value="Arquivos" style="rounded=1;whiteSpace=wrap;html=1;arcSize=0;" parent="1" vertex="1">
          <mxGeometry x="820" y="230" width="190" height="80" as="geometry" />
        </mxCell>
        <mxCell id="IGj6ZcriKxsuKfyfzd8B-9" value="id" style="ellipse;whiteSpace=wrap;html=1;aspect=fixed;" parent="1" vertex="1">
          <mxGeometry x="790" y="160" width="30" height="30" as="geometry" />
        </mxCell>
        <mxCell id="IGj6ZcriKxsuKfyfzd8B-10" value="nome" style="ellipse;whiteSpace=wrap;html=1;aspect=fixed;" parent="1" vertex="1">
          <mxGeometry x="850" y="160" width="30" height="30" as="geometry" />
        </mxCell>
        <mxCell id="IGj6ZcriKxsuKfyfzd8B-11" value="permissao_acesso" style="ellipse;whiteSpace=wrap;html=1;aspect=fixed;" parent="1" vertex="1">
          <mxGeometry x="970" y="160" width="30" height="30" as="geometry" />
        </mxCell>
        <mxCell id="IGj6ZcriKxsuKfyfzd8B-12" value="data_modificacao" style="ellipse;whiteSpace=wrap;html=1;aspect=fixed;" parent="1" vertex="1">
          <mxGeometry x="1070" y="210" width="30" height="30" as="geometry" />
        </mxCell>
        <mxCell id="IGj6ZcriKxsuKfyfzd8B-13" value="tamanho" style="ellipse;whiteSpace=wrap;html=1;aspect=fixed;" parent="1" vertex="1">
          <mxGeometry x="1050" y="170" width="30" height="30" as="geometry" />
        </mxCell>
        <mxCell id="IGj6ZcriKxsuKfyfzd8B-14" value="tipo" style="ellipse;whiteSpace=wrap;html=1;aspect=fixed;" parent="1" vertex="1">
          <mxGeometry x="900" y="160" width="30" height="30" as="geometry" />
        </mxCell>
        <mxCell id="IGj6ZcriKxsuKfyfzd8B-15" value="localizacao" style="ellipse;whiteSpace=wrap;html=1;aspect=fixed;" parent="1" vertex="1">
          <mxGeometry x="1070" y="255" width="30" height="30" as="geometry" />
        </mxCell>
        <mxCell id="IGj6ZcriKxsuKfyfzd8B-16" value="url" style="ellipse;whiteSpace=wrap;html=1;aspect=fixed;" parent="1" vertex="1">
          <mxGeometry x="1050" y="290" width="30" height="30" as="geometry" />
        </mxCell>
        <mxCell id="IGj6ZcriKxsuKfyfzd8B-17" value="Instituicao" style="rounded=1;whiteSpace=wrap;html=1;arcSize=0;" parent="1" vertex="1">
          <mxGeometry x="-65" y="230" width="155" height="80" as="geometry" />
        </mxCell>
        <mxCell id="IGj6ZcriKxsuKfyfzd8B-18" value="id" style="ellipse;whiteSpace=wrap;html=1;aspect=fixed;" parent="1" vertex="1">
          <mxGeometry x="-80" y="160" width="30" height="30" as="geometry" />
        </mxCell>
        <mxCell id="IGj6ZcriKxsuKfyfzd8B-19" value="nome" style="ellipse;whiteSpace=wrap;html=1;aspect=fixed;" parent="1" vertex="1">
          <mxGeometry x="-40" y="160" width="30" height="30" as="geometry" />
        </mxCell>
        <mxCell id="IGj6ZcriKxsuKfyfzd8B-20" value="causa_social" style="ellipse;whiteSpace=wrap;html=1;aspect=fixed;" parent="1" vertex="1">
          <mxGeometry x="20" y="160" width="30" height="30" as="geometry" />
        </mxCell>
        <mxCell id="IGj6ZcriKxsuKfyfzd8B-21" value="endereco" style="ellipse;whiteSpace=wrap;html=1;aspect=fixed;" parent="1" vertex="1">
          <mxGeometry x="90" y="160" width="30" height="30" as="geometry" />
        </mxCell>
        <mxCell id="IGj6ZcriKxsuKfyfzd8B-22" value="Plano" style="rounded=1;whiteSpace=wrap;html=1;arcSize=0;" parent="1" vertex="1">
          <mxGeometry x="-65" y="509" width="155" height="80" as="geometry" />
        </mxCell>
        <mxCell id="IGj6ZcriKxsuKfyfzd8B-23" value="id" style="ellipse;whiteSpace=wrap;html=1;aspect=fixed;" parent="1" vertex="1">
          <mxGeometry x="-95" y="619.5" width="30" height="30" as="geometry" />
        </mxCell>
        <mxCell id="IGj6ZcriKxsuKfyfzd8B-24" value="nome" style="ellipse;whiteSpace=wrap;html=1;aspect=fixed;" parent="1" vertex="1">
          <mxGeometry x="-50" y="619.5" width="30" height="30" as="geometry" />
        </mxCell>
        <mxCell id="IGj6ZcriKxsuKfyfzd8B-25" value="duracao" style="ellipse;whiteSpace=wrap;html=1;aspect=fixed;" parent="1" vertex="1">
          <mxGeometry x="-10" y="619.5" width="30" height="30" as="geometry" />
        </mxCell>
        <mxCell id="IGj6ZcriKxsuKfyfzd8B-26" value="data_aquisicao" style="ellipse;whiteSpace=wrap;html=1;aspect=fixed;" parent="1" vertex="1">
          <mxGeometry x="57.5" y="619.5" width="30" height="30" as="geometry" />
        </mxCell>
        <mxCell id="IGj6ZcriKxsuKfyfzd8B-27" value="espaco_usuario" style="ellipse;whiteSpace=wrap;html=1;aspect=fixed;" parent="1" vertex="1">
          <mxGeometry x="120" y="609.5" width="30" height="30" as="geometry" />
        </mxCell>
        <mxCell id="IGj6ZcriKxsuKfyfzd8B-28" value="Administrador" style="rounded=1;whiteSpace=wrap;html=1;arcSize=0;" parent="1" vertex="1">
          <mxGeometry x="345" y="460" width="100" height="40" as="geometry" />
        </mxCell>
        <mxCell id="IGj6ZcriKxsuKfyfzd8B-29" value="" style="triangle;whiteSpace=wrap;html=1;rotation=-90;" parent="1" vertex="1">
          <mxGeometry x="372.5" y="360" width="45" height="50" as="geometry" />
        </mxCell>
        <mxCell id="IGj6ZcriKxsuKfyfzd8B-30" value="id_adm" style="ellipse;whiteSpace=wrap;html=1;aspect=fixed;" parent="1" vertex="1">
          <mxGeometry x="360" y="525" width="30" height="30" as="geometry" />
        </mxCell>
        <mxCell id="IGj6ZcriKxsuKfyfzd8B-32" value="id" style="ellipse;whiteSpace=wrap;html=1;aspect=fixed;" parent="1" vertex="1">
          <mxGeometry x="570" y="820" width="30" height="30" as="geometry" />
        </mxCell>
        <mxCell id="IGj6ZcriKxsuKfyfzd8B-33" value="dia" style="ellipse;whiteSpace=wrap;html=1;aspect=fixed;" parent="1" vertex="1">
          <mxGeometry x="620" y="820" width="30" height="30" as="geometry" />
        </mxCell>
        <mxCell id="IGj6ZcriKxsuKfyfzd8B-34" value="hora" style="ellipse;whiteSpace=wrap;html=1;aspect=fixed;" parent="1" vertex="1">
          <mxGeometry x="675" y="820" width="30" height="30" as="geometry" />
        </mxCell>
        <mxCell id="IGj6ZcriKxsuKfyfzd8B-35" value="descricao" style="ellipse;whiteSpace=wrap;html=1;aspect=fixed;" parent="1" vertex="1">
          <mxGeometry x="740" y="820" width="30" height="30" as="geometry" />
        </mxCell>
        <mxCell id="IGj6ZcriKxsuKfyfzd8B-36" value="Historico de Versionamento" style="rounded=1;whiteSpace=wrap;html=1;arcSize=0;" parent="1" vertex="1">
          <mxGeometry x="1186" y="390" width="140" height="80" as="geometry" />
        </mxCell>
        <mxCell id="IGj6ZcriKxsuKfyfzd8B-37" value="data" style="ellipse;whiteSpace=wrap;html=1;aspect=fixed;" parent="1" vertex="1">
          <mxGeometry x="1200" y="330" width="30" height="30" as="geometry" />
        </mxCell>
        <mxCell id="IGj6ZcriKxsuKfyfzd8B-39" value="id" style="ellipse;whiteSpace=wrap;html=1;aspect=fixed;" parent="1" vertex="1">
          <mxGeometry x="1160" y="330" width="30" height="30" as="geometry" />
        </mxCell>
        <mxCell id="IGj6ZcriKxsuKfyfzd8B-40" value="operacao" style="ellipse;whiteSpace=wrap;html=1;aspect=fixed;" parent="1" vertex="1">
          <mxGeometry x="1329" y="330" width="30" height="30" as="geometry" />
        </mxCell>
        <mxCell id="IGj6ZcriKxsuKfyfzd8B-41" value="data_ingresso" style="ellipse;whiteSpace=wrap;html=1;aspect=fixed;" parent="1" vertex="1">
          <mxGeometry x="1260" y="330" width="30" height="30" as="geometry" />
        </mxCell>
        <mxCell id="IGj6ZcriKxsuKfyfzd8B-43" value="data_operacao" style="ellipse;whiteSpace=wrap;html=1;aspect=fixed;" parent="1" vertex="1">
          <mxGeometry x="690" y="170" width="30" height="30" as="geometry" />
        </mxCell>
        <mxCell id="IGj6ZcriKxsuKfyfzd8B-45" value="id_arquivo" style="ellipse;whiteSpace=wrap;html=1;aspect=fixed;" parent="1" vertex="1">
          <mxGeometry x="680" y="320" width="30" height="30" as="geometry" />
        </mxCell>
        <mxCell id="IGj6ZcriKxsuKfyfzd8B-46" value="id_dono" style="ellipse;whiteSpace=wrap;html=1;aspect=fixed;" parent="1" vertex="1">
          <mxGeometry x="610" y="320" width="30" height="30" as="geometry" />
        </mxCell>
        <mxCell id="IGj6ZcriKxsuKfyfzd8B-47" value="id_compartilhado" style="ellipse;whiteSpace=wrap;html=1;aspect=fixed;" parent="1" vertex="1">
          <mxGeometry x="590" y="470" width="30" height="30" as="geometry" />
        </mxCell>
        <mxCell id="IGj6ZcriKxsuKfyfzd8B-48" value="data_compartilhamento" style="ellipse;whiteSpace=wrap;html=1;aspect=fixed;" parent="1" vertex="1">
          <mxGeometry x="705" y="470" width="30" height="30" as="geometry" />
        </mxCell>
        <mxCell id="IGj6ZcriKxsuKfyfzd8B-50" value="id" style="ellipse;whiteSpace=wrap;html=1;aspect=fixed;" parent="1" vertex="1">
          <mxGeometry x="570" y="639.5" width="30" height="30" as="geometry" />
        </mxCell>
        <mxCell id="IGj6ZcriKxsuKfyfzd8B-51" value="conteudo" style="ellipse;whiteSpace=wrap;html=1;aspect=fixed;" parent="1" vertex="1">
          <mxGeometry x="620" y="639.5" width="30" height="30" as="geometry" />
        </mxCell>
        <mxCell id="IGj6ZcriKxsuKfyfzd8B-52" value="data" style="ellipse;whiteSpace=wrap;html=1;aspect=fixed;" parent="1" vertex="1">
          <mxGeometry x="670" y="639.5" width="30" height="30" as="geometry" />
        </mxCell>
        <mxCell id="IGj6ZcriKxsuKfyfzd8B-53" value="hora" style="ellipse;whiteSpace=wrap;html=1;aspect=fixed;" parent="1" vertex="1">
          <mxGeometry x="720" y="639.5" width="30" height="30" as="geometry" />
        </mxCell>
        <mxCell id="IGj6ZcriKxsuKfyfzd8B-55" value="" style="endArrow=none;html=1;rounded=0;exitX=0;exitY=0;exitDx=0;exitDy=0;entryX=0.5;entryY=1;entryDx=0;entryDy=0;" parent="1" source="IGj6ZcriKxsuKfyfzd8B-1" target="IGj6ZcriKxsuKfyfzd8B-4" edge="1">
          <mxGeometry width="50" height="50" relative="1" as="geometry">
            <mxPoint x="330" y="270" as="sourcePoint" />
            <mxPoint x="310" y="210" as="targetPoint" />
          </mxGeometry>
        </mxCell>
        <mxCell id="IGj6ZcriKxsuKfyfzd8B-56" value="" style="endArrow=none;html=1;rounded=0;entryX=0.5;entryY=1;entryDx=0;entryDy=0;exitX=0.25;exitY=0;exitDx=0;exitDy=0;" parent="1" source="IGj6ZcriKxsuKfyfzd8B-1" target="IGj6ZcriKxsuKfyfzd8B-2" edge="1">
          <mxGeometry width="50" height="50" relative="1" as="geometry">
            <mxPoint x="330" y="270" as="sourcePoint" />
            <mxPoint x="380" y="220" as="targetPoint" />
          </mxGeometry>
        </mxCell>
        <mxCell id="IGj6ZcriKxsuKfyfzd8B-57" value="" style="endArrow=none;html=1;rounded=0;entryX=0.5;entryY=1;entryDx=0;entryDy=0;exitX=0.5;exitY=0;exitDx=0;exitDy=0;" parent="1" source="IGj6ZcriKxsuKfyfzd8B-1" target="IGj6ZcriKxsuKfyfzd8B-3" edge="1">
          <mxGeometry width="50" height="50" relative="1" as="geometry">
            <mxPoint x="330" y="270" as="sourcePoint" />
            <mxPoint x="380" y="220" as="targetPoint" />
          </mxGeometry>
        </mxCell>
        <mxCell id="IGj6ZcriKxsuKfyfzd8B-58" value="" style="endArrow=none;html=1;rounded=0;entryX=0.5;entryY=1;entryDx=0;entryDy=0;exitX=0.75;exitY=0;exitDx=0;exitDy=0;" parent="1" source="IGj6ZcriKxsuKfyfzd8B-1" target="IGj6ZcriKxsuKfyfzd8B-5" edge="1">
          <mxGeometry width="50" height="50" relative="1" as="geometry">
            <mxPoint x="330" y="270" as="sourcePoint" />
            <mxPoint x="380" y="220" as="targetPoint" />
          </mxGeometry>
        </mxCell>
        <mxCell id="IGj6ZcriKxsuKfyfzd8B-59" value="" style="endArrow=none;html=1;rounded=0;entryX=0.5;entryY=1;entryDx=0;entryDy=0;exitX=1;exitY=0;exitDx=0;exitDy=0;" parent="1" source="IGj6ZcriKxsuKfyfzd8B-1" target="IGj6ZcriKxsuKfyfzd8B-6" edge="1">
          <mxGeometry width="50" height="50" relative="1" as="geometry">
            <mxPoint x="330" y="270" as="sourcePoint" />
            <mxPoint x="380" y="220" as="targetPoint" />
          </mxGeometry>
        </mxCell>
        <mxCell id="IGj6ZcriKxsuKfyfzd8B-60" value="" style="endArrow=none;html=1;rounded=0;entryX=0.5;entryY=1;entryDx=0;entryDy=0;exitX=1;exitY=0.5;exitDx=0;exitDy=0;" parent="1" source="IGj6ZcriKxsuKfyfzd8B-29" target="IGj6ZcriKxsuKfyfzd8B-1" edge="1">
          <mxGeometry width="50" height="50" relative="1" as="geometry">
            <mxPoint x="420" y="390" as="sourcePoint" />
            <mxPoint x="470" y="340" as="targetPoint" />
          </mxGeometry>
        </mxCell>
        <mxCell id="IGj6ZcriKxsuKfyfzd8B-61" value="" style="endArrow=none;html=1;rounded=0;exitX=0;exitY=0.5;exitDx=0;exitDy=0;entryX=0.5;entryY=0;entryDx=0;entryDy=0;" parent="1" source="IGj6ZcriKxsuKfyfzd8B-29" target="IGj6ZcriKxsuKfyfzd8B-28" edge="1">
          <mxGeometry width="50" height="50" relative="1" as="geometry">
            <mxPoint x="380" y="390" as="sourcePoint" />
            <mxPoint x="430" y="340" as="targetPoint" />
          </mxGeometry>
        </mxCell>
        <mxCell id="IGj6ZcriKxsuKfyfzd8B-62" value="" style="endArrow=none;html=1;rounded=0;exitX=0.5;exitY=0;exitDx=0;exitDy=0;entryX=0.5;entryY=1;entryDx=0;entryDy=0;" parent="1" source="IGj6ZcriKxsuKfyfzd8B-30" target="IGj6ZcriKxsuKfyfzd8B-28" edge="1">
          <mxGeometry width="50" height="50" relative="1" as="geometry">
            <mxPoint x="380" y="440" as="sourcePoint" />
            <mxPoint x="430" y="390" as="targetPoint" />
          </mxGeometry>
        </mxCell>
        <mxCell id="IGj6ZcriKxsuKfyfzd8B-63" value="" style="endArrow=none;html=1;rounded=0;entryX=0;entryY=0;entryDx=0;entryDy=0;exitX=0.5;exitY=1;exitDx=0;exitDy=0;" parent="1" source="IGj6ZcriKxsuKfyfzd8B-9" target="IGj6ZcriKxsuKfyfzd8B-8" edge="1">
          <mxGeometry width="50" height="50" relative="1" as="geometry">
            <mxPoint x="900" y="230" as="sourcePoint" />
            <mxPoint x="950" y="180" as="targetPoint" />
          </mxGeometry>
        </mxCell>
        <mxCell id="IGj6ZcriKxsuKfyfzd8B-64" value="" style="endArrow=none;html=1;rounded=0;exitX=0.25;exitY=0;exitDx=0;exitDy=0;entryX=0.5;entryY=1;entryDx=0;entryDy=0;" parent="1" source="IGj6ZcriKxsuKfyfzd8B-8" target="IGj6ZcriKxsuKfyfzd8B-10" edge="1">
          <mxGeometry width="50" height="50" relative="1" as="geometry">
            <mxPoint x="840" y="230" as="sourcePoint" />
            <mxPoint x="890" y="180" as="targetPoint" />
          </mxGeometry>
        </mxCell>
        <mxCell id="IGj6ZcriKxsuKfyfzd8B-65" value="" style="endArrow=none;html=1;rounded=0;exitX=0.5;exitY=0;exitDx=0;exitDy=0;entryX=0.5;entryY=1;entryDx=0;entryDy=0;" parent="1" source="IGj6ZcriKxsuKfyfzd8B-8" target="IGj6ZcriKxsuKfyfzd8B-14" edge="1">
          <mxGeometry width="50" height="50" relative="1" as="geometry">
            <mxPoint x="840" y="230" as="sourcePoint" />
            <mxPoint x="890" y="180" as="targetPoint" />
          </mxGeometry>
        </mxCell>
        <mxCell id="IGj6ZcriKxsuKfyfzd8B-66" value="" style="endArrow=none;html=1;rounded=0;entryX=0.75;entryY=0;entryDx=0;entryDy=0;exitX=0.5;exitY=1;exitDx=0;exitDy=0;" parent="1" source="IGj6ZcriKxsuKfyfzd8B-11" target="IGj6ZcriKxsuKfyfzd8B-8" edge="1">
          <mxGeometry width="50" height="50" relative="1" as="geometry">
            <mxPoint x="840" y="230" as="sourcePoint" />
            <mxPoint x="890" y="180" as="targetPoint" />
          </mxGeometry>
        </mxCell>
        <mxCell id="IGj6ZcriKxsuKfyfzd8B-67" value="" style="endArrow=none;html=1;rounded=0;entryX=0;entryY=1;entryDx=0;entryDy=0;exitX=1;exitY=0;exitDx=0;exitDy=0;" parent="1" source="IGj6ZcriKxsuKfyfzd8B-8" target="IGj6ZcriKxsuKfyfzd8B-13" edge="1">
          <mxGeometry width="50" height="50" relative="1" as="geometry">
            <mxPoint x="840" y="280" as="sourcePoint" />
            <mxPoint x="890" y="230" as="targetPoint" />
          </mxGeometry>
        </mxCell>
        <mxCell id="IGj6ZcriKxsuKfyfzd8B-68" value="" style="endArrow=none;html=1;rounded=0;entryX=1;entryY=0.25;entryDx=0;entryDy=0;exitX=0;exitY=0.5;exitDx=0;exitDy=0;" parent="1" source="IGj6ZcriKxsuKfyfzd8B-12" target="IGj6ZcriKxsuKfyfzd8B-8" edge="1">
          <mxGeometry width="50" height="50" relative="1" as="geometry">
            <mxPoint x="840" y="290" as="sourcePoint" />
            <mxPoint x="890" y="240" as="targetPoint" />
          </mxGeometry>
        </mxCell>
        <mxCell id="IGj6ZcriKxsuKfyfzd8B-69" value="" style="endArrow=none;html=1;rounded=0;entryX=1;entryY=0.5;entryDx=0;entryDy=0;exitX=0;exitY=0.5;exitDx=0;exitDy=0;" parent="1" source="IGj6ZcriKxsuKfyfzd8B-15" target="IGj6ZcriKxsuKfyfzd8B-8" edge="1">
          <mxGeometry width="50" height="50" relative="1" as="geometry">
            <mxPoint x="840" y="290" as="sourcePoint" />
            <mxPoint x="890" y="240" as="targetPoint" />
          </mxGeometry>
        </mxCell>
        <mxCell id="IGj6ZcriKxsuKfyfzd8B-70" value="" style="endArrow=none;html=1;rounded=0;exitX=1;exitY=0.75;exitDx=0;exitDy=0;entryX=0;entryY=0.5;entryDx=0;entryDy=0;" parent="1" source="IGj6ZcriKxsuKfyfzd8B-8" target="IGj6ZcriKxsuKfyfzd8B-16" edge="1">
          <mxGeometry width="50" height="50" relative="1" as="geometry">
            <mxPoint x="840" y="290" as="sourcePoint" />
            <mxPoint x="1030" y="305" as="targetPoint" />
          </mxGeometry>
        </mxCell>
        <mxCell id="IGj6ZcriKxsuKfyfzd8B-71" value="tipo_operacao" style="ellipse;whiteSpace=wrap;html=1;aspect=fixed;" parent="1" vertex="1">
          <mxGeometry x="600" y="170" width="30" height="30" as="geometry" />
        </mxCell>
        <mxCell id="IGj6ZcriKxsuKfyfzd8B-72" value="" style="endArrow=none;html=1;rounded=0;entryX=0.5;entryY=1;entryDx=0;entryDy=0;exitX=0;exitY=0;exitDx=0;exitDy=0;" parent="1" source="T2neXNjc85ckbvQc1pYw-2" target="IGj6ZcriKxsuKfyfzd8B-71" edge="1">
          <mxGeometry width="50" height="50" relative="1" as="geometry">
            <mxPoint x="625" y="240" as="sourcePoint" />
            <mxPoint x="670" y="300" as="targetPoint" />
          </mxGeometry>
        </mxCell>
        <mxCell id="IGj6ZcriKxsuKfyfzd8B-73" value="" style="endArrow=none;html=1;rounded=0;entryX=0.5;entryY=1;entryDx=0;entryDy=0;exitX=1;exitY=0;exitDx=0;exitDy=0;" parent="1" source="T2neXNjc85ckbvQc1pYw-2" target="IGj6ZcriKxsuKfyfzd8B-43" edge="1">
          <mxGeometry width="50" height="50" relative="1" as="geometry">
            <mxPoint x="695" y="240" as="sourcePoint" />
            <mxPoint x="670" y="300" as="targetPoint" />
          </mxGeometry>
        </mxCell>
        <mxCell id="IGj6ZcriKxsuKfyfzd8B-74" value="" style="endArrow=none;html=1;rounded=0;exitX=1;exitY=0.5;exitDx=0;exitDy=0;entryX=0;entryY=0.5;entryDx=0;entryDy=0;" parent="1" source="IGj6ZcriKxsuKfyfzd8B-1" target="T2neXNjc85ckbvQc1pYw-2" edge="1">
          <mxGeometry width="50" height="50" relative="1" as="geometry">
            <mxPoint x="610" y="320" as="sourcePoint" />
            <mxPoint x="590" y="270" as="targetPoint" />
          </mxGeometry>
        </mxCell>
        <mxCell id="IGj6ZcriKxsuKfyfzd8B-75" value="" style="endArrow=none;html=1;rounded=0;entryX=0;entryY=0.5;entryDx=0;entryDy=0;exitX=1;exitY=0.5;exitDx=0;exitDy=0;" parent="1" source="T2neXNjc85ckbvQc1pYw-2" target="IGj6ZcriKxsuKfyfzd8B-8" edge="1">
          <mxGeometry width="50" height="50" relative="1" as="geometry">
            <mxPoint x="730" y="270" as="sourcePoint" />
            <mxPoint x="660" y="270" as="targetPoint" />
          </mxGeometry>
        </mxCell>
        <mxCell id="IGj6ZcriKxsuKfyfzd8B-76" value="" style="endArrow=none;html=1;rounded=0;entryX=1;entryY=1;entryDx=0;entryDy=0;exitX=0;exitY=1;exitDx=0;exitDy=0;" parent="1" source="T2neXNjc85ckbvQc1pYw-1" target="IGj6ZcriKxsuKfyfzd8B-1" edge="1">
          <mxGeometry width="50" height="50" relative="1" as="geometry">
            <mxPoint x="590" y="425" as="sourcePoint" />
            <mxPoint x="610" y="390" as="targetPoint" />
            <Array as="points">
              <mxPoint x="530" y="430" />
              <mxPoint x="530" y="310" />
            </Array>
          </mxGeometry>
        </mxCell>
        <mxCell id="IGj6ZcriKxsuKfyfzd8B-77" value="" style="endArrow=none;html=1;rounded=0;entryX=0;entryY=0.75;entryDx=0;entryDy=0;exitX=1;exitY=0.5;exitDx=0;exitDy=0;" parent="1" source="T2neXNjc85ckbvQc1pYw-1" target="IGj6ZcriKxsuKfyfzd8B-8" edge="1">
          <mxGeometry width="50" height="50" relative="1" as="geometry">
            <mxPoint x="730" y="410" as="sourcePoint" />
            <mxPoint x="745" y="315" as="targetPoint" />
            <Array as="points">
              <mxPoint x="790" y="415" />
              <mxPoint x="790" y="290" />
            </Array>
          </mxGeometry>
        </mxCell>
        <mxCell id="IGj6ZcriKxsuKfyfzd8B-78" value="" style="endArrow=none;html=1;rounded=0;entryX=0.5;entryY=1;entryDx=0;entryDy=0;exitX=0;exitY=0;exitDx=0;exitDy=0;" parent="1" source="T2neXNjc85ckbvQc1pYw-1" target="IGj6ZcriKxsuKfyfzd8B-46" edge="1">
          <mxGeometry width="50" height="50" relative="1" as="geometry">
            <mxPoint x="625" y="380" as="sourcePoint" />
            <mxPoint x="630" y="380" as="targetPoint" />
          </mxGeometry>
        </mxCell>
        <mxCell id="IGj6ZcriKxsuKfyfzd8B-79" value="" style="endArrow=none;html=1;rounded=0;entryX=0.5;entryY=1;entryDx=0;entryDy=0;exitX=1;exitY=0;exitDx=0;exitDy=0;" parent="1" source="T2neXNjc85ckbvQc1pYw-1" target="IGj6ZcriKxsuKfyfzd8B-45" edge="1">
          <mxGeometry width="50" height="50" relative="1" as="geometry">
            <mxPoint x="695" y="380" as="sourcePoint" />
            <mxPoint x="630" y="380" as="targetPoint" />
          </mxGeometry>
        </mxCell>
        <mxCell id="IGj6ZcriKxsuKfyfzd8B-80" value="" style="endArrow=none;html=1;rounded=0;exitX=0.5;exitY=0;exitDx=0;exitDy=0;entryX=0;entryY=1;entryDx=0;entryDy=0;" parent="1" source="IGj6ZcriKxsuKfyfzd8B-47" target="T2neXNjc85ckbvQc1pYw-1" edge="1">
          <mxGeometry width="50" height="50" relative="1" as="geometry">
            <mxPoint x="580" y="430" as="sourcePoint" />
            <mxPoint x="625" y="440" as="targetPoint" />
          </mxGeometry>
        </mxCell>
        <mxCell id="IGj6ZcriKxsuKfyfzd8B-81" value="" style="endArrow=none;html=1;rounded=0;entryX=0.5;entryY=0;entryDx=0;entryDy=0;exitX=1;exitY=1;exitDx=0;exitDy=0;" parent="1" source="T2neXNjc85ckbvQc1pYw-1" target="IGj6ZcriKxsuKfyfzd8B-48" edge="1">
          <mxGeometry width="50" height="50" relative="1" as="geometry">
            <mxPoint x="695" y="440" as="sourcePoint" />
            <mxPoint x="630" y="380" as="targetPoint" />
          </mxGeometry>
        </mxCell>
        <mxCell id="IGj6ZcriKxsuKfyfzd8B-83" value="Associado" style="shape=rhombus;perimeter=rhombusPerimeter;whiteSpace=wrap;html=1;align=center;" parent="1" vertex="1">
          <mxGeometry x="600" y="100" width="120" height="60" as="geometry" />
        </mxCell>
        <mxCell id="IGj6ZcriKxsuKfyfzd8B-84" value="" style="endArrow=none;html=1;rounded=0;entryX=0;entryY=0.5;entryDx=0;entryDy=0;exitX=1;exitY=0.25;exitDx=0;exitDy=0;" parent="1" source="IGj6ZcriKxsuKfyfzd8B-1" target="IGj6ZcriKxsuKfyfzd8B-83" edge="1">
          <mxGeometry width="50" height="50" relative="1" as="geometry">
            <mxPoint x="500" y="250" as="sourcePoint" />
            <mxPoint x="590" y="130" as="targetPoint" />
            <Array as="points">
              <mxPoint x="560" y="250" />
              <mxPoint x="560" y="130" />
            </Array>
          </mxGeometry>
        </mxCell>
        <mxCell id="IGj6ZcriKxsuKfyfzd8B-85" value="" style="endArrow=none;html=1;rounded=0;entryX=1;entryY=0.5;entryDx=0;entryDy=0;exitX=0;exitY=0.25;exitDx=0;exitDy=0;" parent="1" source="IGj6ZcriKxsuKfyfzd8B-8" target="IGj6ZcriKxsuKfyfzd8B-83" edge="1">
          <mxGeometry width="50" height="50" relative="1" as="geometry">
            <mxPoint x="810" y="260" as="sourcePoint" />
            <mxPoint x="710" y="140" as="targetPoint" />
            <Array as="points">
              <mxPoint x="750" y="250" />
              <mxPoint x="750" y="130" />
            </Array>
          </mxGeometry>
        </mxCell>
        <mxCell id="IGj6ZcriKxsuKfyfzd8B-86" value="" style="endArrow=none;html=1;rounded=0;entryX=0;entryY=1;entryDx=0;entryDy=0;exitX=0.5;exitY=0;exitDx=0;exitDy=0;" parent="1" source="IGj6ZcriKxsuKfyfzd8B-50" target="T2neXNjc85ckbvQc1pYw-3" edge="1">
          <mxGeometry width="50" height="50" relative="1" as="geometry">
            <mxPoint x="700" y="760" as="sourcePoint" />
            <mxPoint x="590" y="615" as="targetPoint" />
          </mxGeometry>
        </mxCell>
        <mxCell id="IGj6ZcriKxsuKfyfzd8B-87" value="" style="endArrow=none;html=1;rounded=0;entryX=0;entryY=1;entryDx=0;entryDy=0;exitX=0.5;exitY=0;exitDx=0;exitDy=0;" parent="1" source="IGj6ZcriKxsuKfyfzd8B-51" target="T2neXNjc85ckbvQc1pYw-3" edge="1">
          <mxGeometry width="50" height="50" relative="1" as="geometry">
            <mxPoint x="700" y="760" as="sourcePoint" />
            <mxPoint x="625" y="615" as="targetPoint" />
          </mxGeometry>
        </mxCell>
        <mxCell id="IGj6ZcriKxsuKfyfzd8B-88" value="" style="endArrow=none;html=1;rounded=0;entryX=1;entryY=1;entryDx=0;entryDy=0;exitX=0.5;exitY=0;exitDx=0;exitDy=0;" parent="1" source="IGj6ZcriKxsuKfyfzd8B-52" target="T2neXNjc85ckbvQc1pYw-3" edge="1">
          <mxGeometry width="50" height="50" relative="1" as="geometry">
            <mxPoint x="700" y="760" as="sourcePoint" />
            <mxPoint x="695" y="615" as="targetPoint" />
          </mxGeometry>
        </mxCell>
        <mxCell id="IGj6ZcriKxsuKfyfzd8B-89" value="" style="endArrow=none;html=1;rounded=0;entryX=1;entryY=1;entryDx=0;entryDy=0;exitX=0.5;exitY=0;exitDx=0;exitDy=0;" parent="1" source="IGj6ZcriKxsuKfyfzd8B-53" target="T2neXNjc85ckbvQc1pYw-3" edge="1">
          <mxGeometry width="50" height="50" relative="1" as="geometry">
            <mxPoint x="700" y="760" as="sourcePoint" />
            <mxPoint x="730" y="615" as="targetPoint" />
          </mxGeometry>
        </mxCell>
        <mxCell id="IGj6ZcriKxsuKfyfzd8B-90" value="" style="endArrow=none;html=1;rounded=0;entryX=1;entryY=1;entryDx=0;entryDy=0;exitX=0;exitY=0.5;exitDx=0;exitDy=0;" parent="1" source="T2neXNjc85ckbvQc1pYw-3" target="IGj6ZcriKxsuKfyfzd8B-1" edge="1">
          <mxGeometry width="50" height="50" relative="1" as="geometry">
            <mxPoint x="590" y="585" as="sourcePoint" />
            <mxPoint x="770" y="460" as="targetPoint" />
            <Array as="points">
              <mxPoint x="490" y="585" />
              <mxPoint x="490" y="330" />
            </Array>
          </mxGeometry>
        </mxCell>
        <mxCell id="IGj6ZcriKxsuKfyfzd8B-91" value="" style="endArrow=none;html=1;rounded=0;exitX=1;exitY=0.5;exitDx=0;exitDy=0;entryX=0.25;entryY=1;entryDx=0;entryDy=0;" parent="1" source="T2neXNjc85ckbvQc1pYw-3" target="IGj6ZcriKxsuKfyfzd8B-8" edge="1">
          <mxGeometry width="50" height="50" relative="1" as="geometry">
            <mxPoint x="730" y="585" as="sourcePoint" />
            <mxPoint x="760" y="400" as="targetPoint" />
            <Array as="points">
              <mxPoint x="870" y="585" />
            </Array>
          </mxGeometry>
        </mxCell>
        <mxCell id="IGj6ZcriKxsuKfyfzd8B-92" value="" style="endArrow=none;html=1;rounded=0;exitX=0.5;exitY=1;exitDx=0;exitDy=0;entryX=0;entryY=0;entryDx=0;entryDy=0;" parent="1" source="IGj6ZcriKxsuKfyfzd8B-18" target="IGj6ZcriKxsuKfyfzd8B-17" edge="1">
          <mxGeometry width="50" height="50" relative="1" as="geometry">
            <mxPoint x="230" y="290" as="sourcePoint" />
            <mxPoint x="280" y="240" as="targetPoint" />
          </mxGeometry>
        </mxCell>
        <mxCell id="IGj6ZcriKxsuKfyfzd8B-93" value="" style="endArrow=none;html=1;rounded=0;exitX=0.5;exitY=1;exitDx=0;exitDy=0;entryX=0.25;entryY=0;entryDx=0;entryDy=0;" parent="1" source="IGj6ZcriKxsuKfyfzd8B-19" target="IGj6ZcriKxsuKfyfzd8B-17" edge="1">
          <mxGeometry width="50" height="50" relative="1" as="geometry">
            <mxPoint x="230" y="290" as="sourcePoint" />
            <mxPoint x="280" y="240" as="targetPoint" />
          </mxGeometry>
        </mxCell>
        <mxCell id="IGj6ZcriKxsuKfyfzd8B-94" value="" style="endArrow=none;html=1;rounded=0;exitX=0.5;exitY=1;exitDx=0;exitDy=0;entryX=0.75;entryY=0;entryDx=0;entryDy=0;" parent="1" source="IGj6ZcriKxsuKfyfzd8B-20" target="IGj6ZcriKxsuKfyfzd8B-17" edge="1">
          <mxGeometry width="50" height="50" relative="1" as="geometry">
            <mxPoint x="230" y="290" as="sourcePoint" />
            <mxPoint x="280" y="240" as="targetPoint" />
          </mxGeometry>
        </mxCell>
        <mxCell id="IGj6ZcriKxsuKfyfzd8B-95" value="" style="endArrow=none;html=1;rounded=0;exitX=1;exitY=0;exitDx=0;exitDy=0;entryX=0.5;entryY=1;entryDx=0;entryDy=0;" parent="1" source="IGj6ZcriKxsuKfyfzd8B-17" target="IGj6ZcriKxsuKfyfzd8B-21" edge="1">
          <mxGeometry width="50" height="50" relative="1" as="geometry">
            <mxPoint x="230" y="290" as="sourcePoint" />
            <mxPoint x="280" y="240" as="targetPoint" />
          </mxGeometry>
        </mxCell>
        <mxCell id="IGj6ZcriKxsuKfyfzd8B-96" value="Possuem" style="shape=rhombus;perimeter=rhombusPerimeter;whiteSpace=wrap;html=1;align=center;" parent="1" vertex="1">
          <mxGeometry x="140" y="240" width="120" height="60" as="geometry" />
        </mxCell>
        <mxCell id="IGj6ZcriKxsuKfyfzd8B-97" value="" style="endArrow=none;html=1;rounded=0;exitX=1;exitY=0.5;exitDx=0;exitDy=0;" parent="1" source="IGj6ZcriKxsuKfyfzd8B-17" target="IGj6ZcriKxsuKfyfzd8B-96" edge="1">
          <mxGeometry width="50" height="50" relative="1" as="geometry">
            <mxPoint x="170" y="350" as="sourcePoint" />
            <mxPoint x="220" y="300" as="targetPoint" />
          </mxGeometry>
        </mxCell>
        <mxCell id="IGj6ZcriKxsuKfyfzd8B-98" value="" style="endArrow=none;html=1;rounded=0;exitX=1;exitY=0.5;exitDx=0;exitDy=0;entryX=0;entryY=0.5;entryDx=0;entryDy=0;" parent="1" source="IGj6ZcriKxsuKfyfzd8B-96" target="IGj6ZcriKxsuKfyfzd8B-1" edge="1">
          <mxGeometry width="50" height="50" relative="1" as="geometry">
            <mxPoint x="240" y="290" as="sourcePoint" />
            <mxPoint x="290" y="290" as="targetPoint" />
          </mxGeometry>
        </mxCell>
        <mxCell id="IGj6ZcriKxsuKfyfzd8B-99" value="Adere" style="shape=rhombus;perimeter=rhombusPerimeter;whiteSpace=wrap;html=1;align=center;" parent="1" vertex="1">
          <mxGeometry x="-47.5" y="380" width="120" height="60" as="geometry" />
        </mxCell>
        <mxCell id="IGj6ZcriKxsuKfyfzd8B-100" value="" style="endArrow=none;html=1;rounded=0;exitX=0.5;exitY=0;exitDx=0;exitDy=0;entryX=0;entryY=1;entryDx=0;entryDy=0;" parent="1" source="IGj6ZcriKxsuKfyfzd8B-23" target="IGj6ZcriKxsuKfyfzd8B-22" edge="1">
          <mxGeometry width="50" height="50" relative="1" as="geometry">
            <mxPoint x="120" y="590" as="sourcePoint" />
            <mxPoint x="170" y="540" as="targetPoint" />
          </mxGeometry>
        </mxCell>
        <mxCell id="IGj6ZcriKxsuKfyfzd8B-101" value="" style="endArrow=none;html=1;rounded=0;exitX=0.5;exitY=0;exitDx=0;exitDy=0;entryX=0.25;entryY=1;entryDx=0;entryDy=0;" parent="1" source="IGj6ZcriKxsuKfyfzd8B-24" target="IGj6ZcriKxsuKfyfzd8B-22" edge="1">
          <mxGeometry width="50" height="50" relative="1" as="geometry">
            <mxPoint x="120" y="590" as="sourcePoint" />
            <mxPoint x="170" y="540" as="targetPoint" />
          </mxGeometry>
        </mxCell>
        <mxCell id="IGj6ZcriKxsuKfyfzd8B-102" value="" style="endArrow=none;html=1;rounded=0;exitX=0.5;exitY=0;exitDx=0;exitDy=0;entryX=0.5;entryY=1;entryDx=0;entryDy=0;" parent="1" source="IGj6ZcriKxsuKfyfzd8B-25" target="IGj6ZcriKxsuKfyfzd8B-22" edge="1">
          <mxGeometry width="50" height="50" relative="1" as="geometry">
            <mxPoint x="120" y="590" as="sourcePoint" />
            <mxPoint x="170" y="540" as="targetPoint" />
          </mxGeometry>
        </mxCell>
        <mxCell id="IGj6ZcriKxsuKfyfzd8B-103" value="" style="endArrow=none;html=1;rounded=0;exitX=0.5;exitY=0;exitDx=0;exitDy=0;entryX=0.75;entryY=1;entryDx=0;entryDy=0;" parent="1" source="IGj6ZcriKxsuKfyfzd8B-26" target="IGj6ZcriKxsuKfyfzd8B-22" edge="1">
          <mxGeometry width="50" height="50" relative="1" as="geometry">
            <mxPoint x="120" y="590" as="sourcePoint" />
            <mxPoint x="170" y="540" as="targetPoint" />
          </mxGeometry>
        </mxCell>
        <mxCell id="IGj6ZcriKxsuKfyfzd8B-104" value="" style="endArrow=none;html=1;rounded=0;exitX=0;exitY=0;exitDx=0;exitDy=0;entryX=1;entryY=1;entryDx=0;entryDy=0;" parent="1" source="IGj6ZcriKxsuKfyfzd8B-27" target="IGj6ZcriKxsuKfyfzd8B-22" edge="1">
          <mxGeometry width="50" height="50" relative="1" as="geometry">
            <mxPoint x="120" y="590" as="sourcePoint" />
            <mxPoint x="170" y="540" as="targetPoint" />
          </mxGeometry>
        </mxCell>
        <mxCell id="IGj6ZcriKxsuKfyfzd8B-105" value="" style="endArrow=none;html=1;rounded=0;entryX=0.5;entryY=1;entryDx=0;entryDy=0;exitX=0.5;exitY=0;exitDx=0;exitDy=0;" parent="1" source="IGj6ZcriKxsuKfyfzd8B-22" target="IGj6ZcriKxsuKfyfzd8B-99" edge="1">
          <mxGeometry width="50" height="50" relative="1" as="geometry">
            <mxPoint x="110" y="520" as="sourcePoint" />
            <mxPoint x="160" y="470" as="targetPoint" />
          </mxGeometry>
        </mxCell>
        <mxCell id="IGj6ZcriKxsuKfyfzd8B-106" value="" style="endArrow=none;html=1;rounded=0;entryX=0.5;entryY=1;entryDx=0;entryDy=0;exitX=0.5;exitY=0;exitDx=0;exitDy=0;" parent="1" source="IGj6ZcriKxsuKfyfzd8B-99" target="IGj6ZcriKxsuKfyfzd8B-17" edge="1">
          <mxGeometry width="50" height="50" relative="1" as="geometry">
            <mxPoint x="110" y="500" as="sourcePoint" />
            <mxPoint x="160" y="450" as="targetPoint" />
          </mxGeometry>
        </mxCell>
        <mxCell id="IGj6ZcriKxsuKfyfzd8B-107" value="Possuem" style="shape=rhombus;perimeter=rhombusPerimeter;whiteSpace=wrap;html=1;align=center;" parent="1" vertex="1">
          <mxGeometry x="1005" y="400" width="120" height="60" as="geometry" />
        </mxCell>
        <mxCell id="IGj6ZcriKxsuKfyfzd8B-109" value="" style="endArrow=none;html=1;rounded=0;entryX=0.75;entryY=1;entryDx=0;entryDy=0;exitX=0;exitY=0.5;exitDx=0;exitDy=0;" parent="1" source="IGj6ZcriKxsuKfyfzd8B-107" target="IGj6ZcriKxsuKfyfzd8B-8" edge="1">
          <mxGeometry width="50" height="50" relative="1" as="geometry">
            <mxPoint x="915" y="430" as="sourcePoint" />
            <mxPoint x="1180" y="380" as="targetPoint" />
            <Array as="points">
              <mxPoint x="963" y="430" />
            </Array>
          </mxGeometry>
        </mxCell>
        <mxCell id="IGj6ZcriKxsuKfyfzd8B-110" value="" style="endArrow=none;html=1;rounded=0;exitX=1;exitY=0.5;exitDx=0;exitDy=0;entryX=0;entryY=0.5;entryDx=0;entryDy=0;" parent="1" source="IGj6ZcriKxsuKfyfzd8B-107" target="IGj6ZcriKxsuKfyfzd8B-36" edge="1">
          <mxGeometry width="50" height="50" relative="1" as="geometry">
            <mxPoint x="1130" y="430" as="sourcePoint" />
            <mxPoint x="1180" y="380" as="targetPoint" />
          </mxGeometry>
        </mxCell>
        <mxCell id="IGj6ZcriKxsuKfyfzd8B-111" value="" style="endArrow=none;html=1;rounded=0;entryX=0.5;entryY=1;entryDx=0;entryDy=0;exitX=0;exitY=0;exitDx=0;exitDy=0;" parent="1" source="IGj6ZcriKxsuKfyfzd8B-36" target="IGj6ZcriKxsuKfyfzd8B-39" edge="1">
          <mxGeometry width="50" height="50" relative="1" as="geometry">
            <mxPoint x="1130" y="430" as="sourcePoint" />
            <mxPoint x="1180" y="380" as="targetPoint" />
          </mxGeometry>
        </mxCell>
        <mxCell id="IGj6ZcriKxsuKfyfzd8B-112" value="" style="endArrow=none;html=1;rounded=0;entryX=0.5;entryY=1;entryDx=0;entryDy=0;exitX=0.25;exitY=0;exitDx=0;exitDy=0;" parent="1" source="IGj6ZcriKxsuKfyfzd8B-36" target="IGj6ZcriKxsuKfyfzd8B-37" edge="1">
          <mxGeometry width="50" height="50" relative="1" as="geometry">
            <mxPoint x="1130" y="430" as="sourcePoint" />
            <mxPoint x="1180" y="380" as="targetPoint" />
          </mxGeometry>
        </mxCell>
        <mxCell id="IGj6ZcriKxsuKfyfzd8B-113" value="" style="endArrow=none;html=1;rounded=0;entryX=0.5;entryY=1;entryDx=0;entryDy=0;exitX=0.75;exitY=0;exitDx=0;exitDy=0;" parent="1" source="IGj6ZcriKxsuKfyfzd8B-36" target="IGj6ZcriKxsuKfyfzd8B-41" edge="1">
          <mxGeometry width="50" height="50" relative="1" as="geometry">
            <mxPoint x="1130" y="430" as="sourcePoint" />
            <mxPoint x="1180" y="380" as="targetPoint" />
          </mxGeometry>
        </mxCell>
        <mxCell id="IGj6ZcriKxsuKfyfzd8B-114" value="" style="endArrow=none;html=1;rounded=0;entryX=0.5;entryY=1;entryDx=0;entryDy=0;exitX=1;exitY=0;exitDx=0;exitDy=0;" parent="1" source="IGj6ZcriKxsuKfyfzd8B-36" target="IGj6ZcriKxsuKfyfzd8B-40" edge="1">
          <mxGeometry width="50" height="50" relative="1" as="geometry">
            <mxPoint x="1130" y="430" as="sourcePoint" />
            <mxPoint x="1180" y="380" as="targetPoint" />
          </mxGeometry>
        </mxCell>
        <mxCell id="IGj6ZcriKxsuKfyfzd8B-120" value="" style="endArrow=none;html=1;rounded=0;entryX=0.5;entryY=1;entryDx=0;entryDy=0;exitX=1;exitY=0.5;exitDx=0;exitDy=0;" parent="1" source="T2neXNjc85ckbvQc1pYw-5" target="IGj6ZcriKxsuKfyfzd8B-8" edge="1">
          <mxGeometry width="50" height="50" relative="1" as="geometry">
            <mxPoint x="735.0000000000005" y="750" as="sourcePoint" />
            <mxPoint x="950" y="430" as="targetPoint" />
            <Array as="points">
              <mxPoint x="915" y="750" />
            </Array>
          </mxGeometry>
        </mxCell>
        <mxCell id="IGj6ZcriKxsuKfyfzd8B-121" value="" style="endArrow=none;html=1;rounded=0;exitX=0.5;exitY=0;exitDx=0;exitDy=0;entryX=0;entryY=1;entryDx=0;entryDy=0;" parent="1" source="IGj6ZcriKxsuKfyfzd8B-32" target="T2neXNjc85ckbvQc1pYw-5" edge="1">
          <mxGeometry width="50" height="50" relative="1" as="geometry">
            <mxPoint x="580" y="790" as="sourcePoint" />
            <mxPoint x="595" y="780" as="targetPoint" />
          </mxGeometry>
        </mxCell>
        <mxCell id="IGj6ZcriKxsuKfyfzd8B-122" value="" style="endArrow=none;html=1;rounded=0;exitX=0.5;exitY=0;exitDx=0;exitDy=0;entryX=0.5;entryY=1;entryDx=0;entryDy=0;" parent="1" source="IGj6ZcriKxsuKfyfzd8B-33" target="T2neXNjc85ckbvQc1pYw-5" edge="1">
          <mxGeometry width="50" height="50" relative="1" as="geometry">
            <mxPoint x="580" y="790" as="sourcePoint" />
            <mxPoint x="630" y="780" as="targetPoint" />
          </mxGeometry>
        </mxCell>
        <mxCell id="IGj6ZcriKxsuKfyfzd8B-123" value="" style="endArrow=none;html=1;rounded=0;exitX=0.5;exitY=0;exitDx=0;exitDy=0;entryX=1;entryY=1;entryDx=0;entryDy=0;" parent="1" source="IGj6ZcriKxsuKfyfzd8B-34" target="T2neXNjc85ckbvQc1pYw-5" edge="1">
          <mxGeometry width="50" height="50" relative="1" as="geometry">
            <mxPoint x="580" y="790" as="sourcePoint" />
            <mxPoint x="700.0000000000005" y="780" as="targetPoint" />
          </mxGeometry>
        </mxCell>
        <mxCell id="IGj6ZcriKxsuKfyfzd8B-124" value="" style="endArrow=none;html=1;rounded=0;exitX=0.5;exitY=0;exitDx=0;exitDy=0;entryX=1;entryY=1;entryDx=0;entryDy=0;" parent="1" source="IGj6ZcriKxsuKfyfzd8B-35" target="T2neXNjc85ckbvQc1pYw-5" edge="1">
          <mxGeometry width="50" height="50" relative="1" as="geometry">
            <mxPoint x="580" y="790" as="sourcePoint" />
            <mxPoint x="735.0000000000005" y="780" as="targetPoint" />
          </mxGeometry>
        </mxCell>
        <mxCell id="IGj6ZcriKxsuKfyfzd8B-126" value="" style="endArrow=none;html=1;rounded=0;entryX=0.75;entryY=1;entryDx=0;entryDy=0;exitX=0;exitY=0;exitDx=0;exitDy=0;" parent="1" source="T2neXNjc85ckbvQc1pYw-5" target="IGj6ZcriKxsuKfyfzd8B-1" edge="1">
          <mxGeometry width="50" height="50" relative="1" as="geometry">
            <mxPoint x="595" y="735" as="sourcePoint" />
            <mxPoint x="580" y="420" as="targetPoint" />
            <Array as="points">
              <mxPoint x="470" y="735" />
              <mxPoint x="470" y="340" />
              <mxPoint x="443" y="340" />
            </Array>
          </mxGeometry>
        </mxCell>
        <mxCell id="IGj6ZcriKxsuKfyfzd8B-130" value="" style="endArrow=none;html=1;rounded=0;exitX=0;exitY=0.5;exitDx=0;exitDy=0;entryX=1;entryY=0.75;entryDx=0;entryDy=0;" parent="1" source="T2neXNjc85ckbvQc1pYw-1" target="IGj6ZcriKxsuKfyfzd8B-1" edge="1">
          <mxGeometry width="50" height="50" relative="1" as="geometry">
            <mxPoint x="590" y="395" as="sourcePoint" />
            <mxPoint x="680" y="370" as="targetPoint" />
            <Array as="points">
              <mxPoint x="560" y="415" />
              <mxPoint x="560" y="290" />
            </Array>
          </mxGeometry>
        </mxCell>
        <mxCell id="IGj6ZcriKxsuKfyfzd8B-131" value="(1,1)" style="text;html=1;align=center;verticalAlign=middle;resizable=0;points=[];autosize=1;strokeColor=none;fillColor=none;" parent="1" vertex="1">
          <mxGeometry x="480" y="225" width="50" height="30" as="geometry" />
        </mxCell>
        <mxCell id="IGj6ZcriKxsuKfyfzd8B-132" value="(1,n)" style="text;html=1;align=center;verticalAlign=middle;resizable=0;points=[];autosize=1;strokeColor=none;fillColor=none;" parent="1" vertex="1">
          <mxGeometry x="780" y="225" width="50" height="30" as="geometry" />
        </mxCell>
        <mxCell id="IGj6ZcriKxsuKfyfzd8B-133" value="(1,n)" style="text;html=1;align=center;verticalAlign=middle;resizable=0;points=[];autosize=1;strokeColor=none;fillColor=none;" parent="1" vertex="1">
          <mxGeometry x="780" y="250" width="50" height="30" as="geometry" />
        </mxCell>
        <mxCell id="IGj6ZcriKxsuKfyfzd8B-134" value="(1,1)" style="text;html=1;align=center;verticalAlign=middle;resizable=0;points=[];autosize=1;strokeColor=none;fillColor=none;" parent="1" vertex="1">
          <mxGeometry x="480" y="250" width="50" height="30" as="geometry" />
        </mxCell>
        <mxCell id="IGj6ZcriKxsuKfyfzd8B-136" value="(0,n)" style="text;html=1;align=center;verticalAlign=middle;resizable=0;points=[];autosize=1;strokeColor=none;fillColor=none;" parent="1" vertex="1">
          <mxGeometry x="445" y="310" width="50" height="30" as="geometry" />
        </mxCell>
        <mxCell id="IGj6ZcriKxsuKfyfzd8B-137" value="(0,n)" style="text;html=1;align=center;verticalAlign=middle;resizable=0;points=[];autosize=1;strokeColor=none;fillColor=none;" parent="1" vertex="1">
          <mxGeometry x="820" y="310" width="50" height="30" as="geometry" />
        </mxCell>
        <mxCell id="IGj6ZcriKxsuKfyfzd8B-138" value="(1,n)" style="text;html=1;align=center;verticalAlign=middle;resizable=0;points=[];autosize=1;strokeColor=none;fillColor=none;" parent="1" vertex="1">
          <mxGeometry x="260" y="240" width="50" height="30" as="geometry" />
        </mxCell>
        <mxCell id="IGj6ZcriKxsuKfyfzd8B-139" value="(0,1)" style="text;html=1;align=center;verticalAlign=middle;resizable=0;points=[];autosize=1;strokeColor=none;fillColor=none;" parent="1" vertex="1">
          <mxGeometry x="80" y="240" width="50" height="30" as="geometry" />
        </mxCell>
        <mxCell id="IGj6ZcriKxsuKfyfzd8B-140" value="(0,1)" style="text;html=1;align=center;verticalAlign=middle;resizable=0;points=[];autosize=1;strokeColor=none;fillColor=none;" parent="1" vertex="1">
          <mxGeometry x="7.5" y="479" width="50" height="30" as="geometry" />
        </mxCell>
        <mxCell id="IGj6ZcriKxsuKfyfzd8B-141" value="(1,1)" style="text;html=1;align=center;verticalAlign=middle;whiteSpace=wrap;rounded=0;" parent="1" vertex="1">
          <mxGeometry x="-28.75" y="300" width="122.5" height="50" as="geometry" />
        </mxCell>
        <mxCell id="IGj6ZcriKxsuKfyfzd8B-143" value="(1,n)" style="text;html=1;align=center;verticalAlign=middle;resizable=0;points=[];autosize=1;strokeColor=none;fillColor=none;" parent="1" vertex="1">
          <mxGeometry x="395" y="310" width="50" height="30" as="geometry" />
        </mxCell>
        <mxCell id="IGj6ZcriKxsuKfyfzd8B-144" value="(1,n)" style="text;html=1;align=center;verticalAlign=middle;resizable=0;points=[];autosize=1;strokeColor=none;fillColor=none;" parent="1" vertex="1">
          <mxGeometry x="414" y="500" width="50" height="30" as="geometry" />
        </mxCell>
        <mxCell id="IGj6ZcriKxsuKfyfzd8B-145" value="(0,1)" style="text;html=1;align=center;verticalAlign=middle;resizable=0;points=[];autosize=1;strokeColor=none;fillColor=none;" parent="1" vertex="1">
          <mxGeometry x="870" y="310" width="50" height="30" as="geometry" />
        </mxCell>
        <mxCell id="IGj6ZcriKxsuKfyfzd8B-146" value="(1,n)" style="text;html=1;align=center;verticalAlign=middle;resizable=0;points=[];autosize=1;strokeColor=none;fillColor=none;" parent="1" vertex="1">
          <mxGeometry x="1140" y="400" width="50" height="30" as="geometry" />
        </mxCell>
        <mxCell id="IGj6ZcriKxsuKfyfzd8B-147" value="(1,1)" style="text;html=1;align=center;verticalAlign=middle;resizable=0;points=[];autosize=1;strokeColor=none;fillColor=none;" parent="1" vertex="1">
          <mxGeometry x="955" y="310" width="50" height="30" as="geometry" />
        </mxCell>
        <mxCell id="IGj6ZcriKxsuKfyfzd8B-148" value="id_usuario" style="ellipse;whiteSpace=wrap;html=1;aspect=fixed;" parent="1" vertex="1">
          <mxGeometry x="1359" y="370" width="30" height="30" as="geometry" />
        </mxCell>
        <mxCell id="IGj6ZcriKxsuKfyfzd8B-149" value="" style="endArrow=none;html=1;rounded=0;entryX=0;entryY=1;entryDx=0;entryDy=0;exitX=1;exitY=0.25;exitDx=0;exitDy=0;" parent="1" source="IGj6ZcriKxsuKfyfzd8B-36" target="IGj6ZcriKxsuKfyfzd8B-148" edge="1">
          <mxGeometry width="50" height="50" relative="1" as="geometry">
            <mxPoint x="1160" y="510" as="sourcePoint" />
            <mxPoint x="1210" y="460" as="targetPoint" />
          </mxGeometry>
        </mxCell>
        <mxCell id="IGj6ZcriKxsuKfyfzd8B-150" value="(1,1)" style="text;html=1;align=center;verticalAlign=middle;resizable=0;points=[];autosize=1;strokeColor=none;fillColor=none;" parent="1" vertex="1">
          <mxGeometry x="480" y="300" width="50" height="30" as="geometry" />
        </mxCell>
        <mxCell id="IGj6ZcriKxsuKfyfzd8B-151" value="(1,n)" style="text;html=1;align=center;verticalAlign=middle;resizable=0;points=[];autosize=1;strokeColor=none;fillColor=none;" parent="1" vertex="1">
          <mxGeometry x="480" y="280" width="50" height="30" as="geometry" />
        </mxCell>
        <mxCell id="IGj6ZcriKxsuKfyfzd8B-152" value="(1,1)" style="text;html=1;align=center;verticalAlign=middle;resizable=0;points=[];autosize=1;strokeColor=none;fillColor=none;" parent="1" vertex="1">
          <mxGeometry x="780" y="285" width="50" height="30" as="geometry" />
        </mxCell>
        <mxCell id="T2neXNjc85ckbvQc1pYw-1" value="Compartilhar" style="shape=rhombus;perimeter=rhombusPerimeter;whiteSpace=wrap;html=1;align=center;" parent="1" vertex="1">
          <mxGeometry x="600" y="385" width="120" height="60" as="geometry" />
        </mxCell>
        <mxCell id="T2neXNjc85ckbvQc1pYw-2" value="Operar" style="shape=rhombus;perimeter=rhombusPerimeter;whiteSpace=wrap;html=1;align=center;" parent="1" vertex="1">
          <mxGeometry x="600" y="240" width="120" height="60" as="geometry" />
        </mxCell>
        <mxCell id="T2neXNjc85ckbvQc1pYw-3" value="Comentar" style="shape=rhombus;perimeter=rhombusPerimeter;whiteSpace=wrap;html=1;align=center;" parent="1" vertex="1">
          <mxGeometry x="600" y="555" width="120" height="60" as="geometry" />
        </mxCell>
        <mxCell id="T2neXNjc85ckbvQc1pYw-4" value="" style="endArrow=none;html=1;rounded=0;entryX=0.25;entryY=1;entryDx=0;entryDy=0;exitX=0;exitY=1;exitDx=0;exitDy=0;" parent="1" source="T2neXNjc85ckbvQc1pYw-5" target="IGj6ZcriKxsuKfyfzd8B-1" edge="1">
          <mxGeometry width="50" height="50" relative="1" as="geometry">
            <mxPoint x="595" y="765" as="sourcePoint" />
            <mxPoint x="740" y="540" as="targetPoint" />
            <Array as="points">
              <mxPoint x="280" y="765" />
              <mxPoint x="280" y="400" />
              <mxPoint x="348" y="400" />
            </Array>
          </mxGeometry>
        </mxCell>
        <mxCell id="T2neXNjc85ckbvQc1pYw-5" value="Suporte" style="shape=rhombus;perimeter=rhombusPerimeter;whiteSpace=wrap;html=1;align=center;" parent="1" vertex="1">
          <mxGeometry x="610" y="720" width="120" height="60" as="geometry" />
        </mxCell>
        <mxCell id="k8QTIDZrKOSUoMuoMo4X-1" value="(1,1)" style="text;html=1;align=center;verticalAlign=middle;whiteSpace=wrap;rounded=0;" vertex="1" parent="1">
          <mxGeometry x="310" y="315" width="23.75" height="20" as="geometry" />
        </mxCell>
      </root>
    </mxGraphModel>
  </diagram>
</mxfile>
